<mxfile host="Electron" agent="Mozilla/5.0 (Windows NT 10.0; Win64; x64) AppleWebKit/537.36 (KHTML, like Gecko) draw.io/24.7.8 Chrome/128.0.6613.36 Electron/32.0.1 Safari/537.36" version="24.7.8">
  <diagram name="Page-1" id="uBcfzLhhTm9oj6fs_-C-">
    <mxGraphModel dx="1195" dy="697" grid="1" gridSize="10" guides="1" tooltips="1" connect="1" arrows="1" fold="1" page="1" pageScale="1" pageWidth="850" pageHeight="1100" math="0" shadow="0">
      <root>
        <mxCell id="0" />
        <mxCell id="1" parent="0" />
        <mxCell id="FIkK466pGslQqrwhTaxI-1" value="Error" style="swimlane;fontStyle=1;align=center;verticalAlign=top;childLayout=stackLayout;horizontal=1;startSize=26;horizontalStack=0;resizeParent=1;resizeParentMax=0;resizeLast=0;collapsible=1;marginBottom=0;whiteSpace=wrap;html=1;" vertex="1" parent="1">
          <mxGeometry x="220" y="200" width="160" height="52" as="geometry" />
        </mxCell>
        <mxCell id="FIkK466pGslQqrwhTaxI-5" value="OutOfMemory" style="swimlane;fontStyle=1;align=center;verticalAlign=top;childLayout=stackLayout;horizontal=1;startSize=26;horizontalStack=0;resizeParent=1;resizeParentMax=0;resizeLast=0;collapsible=1;marginBottom=0;whiteSpace=wrap;html=1;" vertex="1" parent="1">
          <mxGeometry x="160" y="320" width="120" height="52" as="geometry" />
        </mxCell>
        <mxCell id="FIkK466pGslQqrwhTaxI-9" value="FileError" style="swimlane;fontStyle=1;align=center;verticalAlign=top;childLayout=stackLayout;horizontal=1;startSize=26;horizontalStack=0;resizeParent=1;resizeParentMax=0;resizeLast=0;collapsible=1;marginBottom=0;whiteSpace=wrap;html=1;" vertex="1" parent="1">
          <mxGeometry x="320" y="320" width="120" height="52" as="geometry" />
        </mxCell>
        <mxCell id="FIkK466pGslQqrwhTaxI-10" value="Extends" style="endArrow=block;endSize=16;endFill=0;html=1;rounded=0;" edge="1" parent="1" source="FIkK466pGslQqrwhTaxI-5" target="FIkK466pGslQqrwhTaxI-1">
          <mxGeometry width="160" relative="1" as="geometry">
            <mxPoint x="220" y="320" as="sourcePoint" />
            <mxPoint x="380" y="320" as="targetPoint" />
          </mxGeometry>
        </mxCell>
        <mxCell id="FIkK466pGslQqrwhTaxI-11" value="Extends" style="endArrow=block;endSize=16;endFill=0;html=1;rounded=0;" edge="1" parent="1" source="FIkK466pGslQqrwhTaxI-9" target="FIkK466pGslQqrwhTaxI-1">
          <mxGeometry width="160" relative="1" as="geometry">
            <mxPoint x="228" y="370" as="sourcePoint" />
            <mxPoint x="302" y="262" as="targetPoint" />
          </mxGeometry>
        </mxCell>
      </root>
    </mxGraphModel>
  </diagram>
</mxfile>
